<svg id="Layer_1" data-name="Layer 1" xmlns="http://www.w3.org/2000/svg" xmlns:xlink="http://www.w3.org/1999/xlink" viewBox="0 0 710.95 530.07"><defs><clipPath id="clip-path" transform="translate(-83.83 -91.91)"><path d="M634.18,316.29l-21.47,5.38q24.35-6.09,36.53-24.44,15.81-23.81,11.38-61.28t-25.11-57q-20.67-19.57-57.57-16.35l21.48-5.38Q636.31,154,657,173.54t25.11,57q4.44,37.47-11.38,61.28Q658.53,310.19,634.18,316.29Z" style="fill:none"/></clipPath></defs><g style="isolation:isolate"><polygon points="710.95 470.17 689.48 475.55 612.28 482.3 633.75 476.92 710.95 470.17" style="fill:#603"/><g style="isolation:isolate"><g style="clip-path:url(#clip-path)"><g style="isolation:isolate"><path d="M634.18,316.29l-21.47,5.38a65.54,65.54,0,0,0,23.87-11l21.48-5.38a65.51,65.51,0,0,1-23.88,11" transform="translate(-83.83 -91.91)" style="fill:#6e0037"/><path d="M658.06,305.31l-21.48,5.38a54.62,54.62,0,0,0,12.66-13.46q15.81-23.81,11.38-61.28t-25.11-57q-20.67-19.57-57.57-16.35l21.48-5.38Q636.31,154,657,173.54t25.11,57q4.44,37.47-11.38,61.28a54.62,54.62,0,0,1-12.66,13.46" transform="translate(-83.83 -91.91)" style="fill:#6a0035"/></g></g></g><polygon points="633.75 476.92 612.28 482.3 498.6 297.38 520.08 292 633.75 476.92" style="fill:#603"/><polygon points="515.59 65.28 494.11 70.66 422.59 76.92 444.07 71.54 515.59 65.28" style="fill:#603"/><polygon points="520.08 292 498.6 297.38 449.22 301.7 470.7 296.32 520.08 292" style="fill:#603"/><polygon points="428.83 494.85 407.35 500.23 350.23 18.06 371.71 12.68 428.83 494.85" style="fill:#690034"/><polygon points="493.55 489.19 472.07 494.57 407.35 500.23 428.83 494.85 493.55 489.19" style="fill:#603"/><path d="M673.48,370.82l121.3,191.25-77.2,6.76L603.91,383.91l-49.38,4.32,22.85,192.86-64.72,5.67L455.54,104.59,591.78,92.67q45.4-4,79.22,12.7a128.26,128.26,0,0,1,53.28,47.91q19.47,31.25,24.23,71.48,5.6,47.17-12.26,87.64T673.48,370.82ZM547.05,325.1l71.52-6.26q36.31-3.16,52.15-27t11.38-61.28q-4.44-37.47-25.11-57t-57.57-16.35l-71.52,6.25L547.05,325.1" transform="translate(-83.83 -91.91)" style="fill:#c40062"/></g><g style="isolation:isolate"><polygon points="494.12 488.33 472.64 493.71 407.93 499.38 429.41 494 494.12 488.33" style="fill:#603"/><polygon points="429.41 494 407.93 499.38 368.81 169.14 390.29 163.76 429.41 494" style="fill:#690034"/><polygon points="274.6 402.39 253.12 407.77 346.27 17.61 367.75 12.23 274.6 402.39" style="fill:#6b0036"/><polygon points="309.06 504.52 287.59 509.9 242.74 513.83 264.22 508.45 309.06 504.52" style="fill:#603"/><polygon points="264.22 508.45 242.74 513.83 82.72 194.17 104.19 188.79 264.22 508.45" style="fill:#670033"/><polygon points="78.6 524.69 57.12 530.07 0 47.9 21.48 42.52 78.6 524.69" style="fill:#690034"/><polygon points="143.31 519.03 121.83 524.41 57.12 530.07 78.6 524.69 143.31 519.03" style="fill:#603"/><polygon points="437 6.17 494.12 488.33 429.41 494 390.29 163.76 309.06 504.52 264.22 508.45 104.19 188.79 143.31 519.03 78.6 524.69 21.48 42.52 91.3 36.41 274.6 402.39 367.75 12.23 437 6.17" style="fill:#c40062"/></g></svg>